{"title":"Friday 1995 BRRip Xvid AC3 BigPerm LKRG","uid":10817893,"size":2281981802,"categoryP":"video","categoryS":"movies","magnet":"?xt=urn:btih:191eb25f69b1d38c8c92a955c07d3bd3594eb9ec&amp;dn=Friday+1995+BRRip+Xvid+AC3+BigPerm+LKRG&amp;tr=udp%3A%2F%2Ftracker.openbittorrent.com%3A80&amp;tr=udp%3A%2F%2Fopen.demonii.com%3A1337&amp;tr=udp%3A%2F%2Ftracker.coppersurfer.tk%3A6969&amp;tr=udp%3A%2F%2Fexodus.desync.com%3A6969","seeders":11,"leechers":0,"uploader":".BONE.","files":2,"time":1408484442,"description":"PLOT\nCraig and Smokey are two guys in Los Angeles hanging out on their porch on a Friday\nafternoon, smoking and drinking, looking for something to do. Encounters with neighbors and other friends..\n\n\nRuntime ..........: 1h 37mn\nFile Size ........: 2.13 GB\nResolution .......: 720 x 480 &lt;a href=&quot;\nhttp://www.imdb.com/title/tt0113118/&quot; rel=&quot;nofollow&quot; target=&quot;_NEW&quot;&gt;\nhttp://www.imdb.com/title/tt0113118/&lt;/a&gt;\nGenre ............: Comedy,Drama\nLanguage .........: English\nSubtitles ........: None\nComplete name : Friday 1995 BRRip Xvid AC3 BigPerm LKRGFriday_LKRG.avi\nFormat : AVI\nFormat/Info : Audio Video Interleave\nFormat profile : OpenDML\nFile size : 2.13 GiB\nDuration : 1h 37mn\nOverall bit rate : 3 133 Kbps\nWriting application : VirtualDubMod 1.5.10.2 (build 2540/release)\nWriting library : VirtualDubMod build 2540/release\nVideo\nID : 0\nFormat : MPEG-4 Visual\nFormat profile : Advanced Simple@L5\nFormat settings, BVOP : 2\nFormat settings, QPel : No\nFormat settings, GMC : No warppoints\nFormat settings, Matrix : Default (H.263)\nMuxing mode : Packed bitstream\nCodec ID : XVID\nCodec ID/Hint : XviD\nDuration : 1h 37mn\nBit rate : 2 673 Kbps\nWidth : 720 pixels\nHeight : 400 pixels\nDisplay aspect ratio : 16:9\nFrame rate : 23.976 fps\nColor space : YUV\nChroma subsampling : 4:2:0\nBit depth : 8 bits\nScan type : Progressive\nCompression mode : Lossy\nBits/(Pixel*Frame) : 0.387\nStream size : 1.81 GiB (85%)\nWriting library : XviD 1.2.1 (UTC 2008-12-04)\nAudio\nID : 1\nFormat : AC-3\nFormat/Info : Audio Coding 3\nMode extension : CM (complete main)\nFormat settings, Endianness : Big\nCodec ID : 2000\nDuration : 1h 37mn\nBit rate mode : Constant\nBit rate : 448 Kbps\nChannel(s) : 6 channels\nChannel positions : Front: L C R, Side: L R, LFE\nSampling rate : 48.0 KHz\nBit depth : 16 bits\nCompression mode : Lossy\nStream size : 311 MiB (14%)\nAlignment : Split accross interleaves\nInterleave, duration : 42 ms (1.00 video frame)\nInterleave, preload duration : 500 ms","torrent":{"xt":"urn:btih:191eb25f69b1d38c8c92a955c07d3bd3594eb9ec","amp;dn":"Friday+1995+BRRip+Xvid+AC3+BigPerm+LKRG","amp;tr":["udp%3A%2F%2Ftracker.openbittorrent.com%3A80","udp%3A%2F%2Fopen.demonii.com%3A1337","udp%3A%2F%2Ftracker.coppersurfer.tk%3A6969","udp%3A%2F%2Fexodus.desync.com%3A6969"],"infoHash":"191eb25f69b1d38c8c92a955c07d3bd3594eb9ec","infoHashBuffer":{"type":"Buffer","data":[25,30,178,95,105,177,211,140,140,146,169,85,192,125,59,211,89,78,185,236]},"announce":[],"urlList":[]}}